<?xml version="1.0" encoding="UTF-8" standalone="no"?>
<!-- Created with Inkscape (http://www.inkscape.org/) -->

<svg
   xmlns:dc="http://purl.org/dc/elements/1.1/"
   xmlns:cc="http://creativecommons.org/ns#"
   xmlns:rdf="http://www.w3.org/1999/02/22-rdf-syntax-ns#"
   xmlns:svg="http://www.w3.org/2000/svg"
   xmlns="http://www.w3.org/2000/svg"
   xmlns:sodipodi="http://sodipodi.sourceforge.net/DTD/sodipodi-0.dtd"
   xmlns:inkscape="http://www.inkscape.org/namespaces/inkscape"
   width="289.78674"
   height="277.09058"
   id="svg2"
   version="1.1"
   inkscape:version="0.47 r22583"
   sodipodi:docname="formen.svg">
  <defs
     id="defs4">
    <inkscape:perspective
       sodipodi:type="inkscape:persp3d"
       inkscape:vp_x="0 : 526.18109 : 1"
       inkscape:vp_y="0 : 1000 : 0"
       inkscape:vp_z="744.09448 : 526.18109 : 1"
       inkscape:persp3d-origin="372.04724 : 350.78739 : 1"
       id="perspective10" />
    <inkscape:perspective
       id="perspective2832"
       inkscape:persp3d-origin="0.5 : 0.33333333 : 1"
       inkscape:vp_z="1 : 0.5 : 1"
       inkscape:vp_y="0 : 1000 : 0"
       inkscape:vp_x="0 : 0.5 : 1"
       sodipodi:type="inkscape:persp3d" />
    <inkscape:perspective
       id="perspective2927"
       inkscape:persp3d-origin="79.666786 : 50.608139 : 1"
       inkscape:vp_z="159.33357 : 75.912209 : 1"
       inkscape:vp_y="0 : 1000 : 0"
       inkscape:vp_x="0 : 75.912209 : 1"
       sodipodi:type="inkscape:persp3d" />
    <inkscape:perspective
       id="perspective2938"
       inkscape:persp3d-origin="61.405853 : 13.449671 : 1"
       inkscape:vp_z="122.81171 : 20.174507 : 1"
       inkscape:vp_y="0 : 1000 : 0"
       inkscape:vp_x="0 : 20.174507 : 1"
       sodipodi:type="inkscape:persp3d" />
    <inkscape:perspective
       id="perspective2989"
       inkscape:persp3d-origin="0.5 : 0.33333333 : 1"
       inkscape:vp_z="1 : 0.5 : 1"
       inkscape:vp_y="0 : 1000 : 0"
       inkscape:vp_x="0 : 0.5 : 1"
       sodipodi:type="inkscape:persp3d" />
    <inkscape:perspective
       id="perspective3050"
       inkscape:persp3d-origin="0.5 : 0.33333333 : 1"
       inkscape:vp_z="1 : 0.5 : 1"
       inkscape:vp_y="0 : 1000 : 0"
       inkscape:vp_x="0 : 0.5 : 1"
       sodipodi:type="inkscape:persp3d" />
  </defs>
  <sodipodi:namedview
     id="base"
     pagecolor="#ffffff"
     bordercolor="#666666"
     borderopacity="1.0"
     inkscape:pageopacity="0.0"
     inkscape:pageshadow="2"
     inkscape:zoom="0.98994949"
     inkscape:cx="-218.91948"
     inkscape:cy="215.84613"
     inkscape:document-units="px"
     inkscape:current-layer="layer1"
     showgrid="true"
     inkscape:snap-global="true"
     inkscape:object-paths="true"
     inkscape:window-width="1920"
     inkscape:window-height="1115"
     inkscape:window-x="-2"
     inkscape:window-y="-3"
     inkscape:window-maximized="1"
     units="cm">
    <inkscape:grid
       type="xygrid"
       id="grid2856"
       empspacing="5"
       visible="true"
       enabled="true"
       snapvisiblegridlinesonly="true" />
  </sodipodi:namedview>
  <metadata
     id="metadata7">
    <rdf:RDF>
      <cc:Work
         rdf:about="">
        <dc:format>image/svg+xml</dc:format>
        <dc:type
           rdf:resource="http://purl.org/dc/dcmitype/StillImage" />
        <dc:title></dc:title>
      </cc:Work>
    </rdf:RDF>
  </metadata>
  <g
     inkscape:label="Ebene 1"
     inkscape:groupmode="layer"
     id="layer1"
     transform="translate(-223.65011,-400.86235)">
    <g
       id="g2947"
       transform="matrix(0.34558938,0,0,0.34558938,81.573479,348.45481)">
      <g
         inkscape:label="Ebene 1"
         id="layer1-7"
         transform="matrix(0.63568075,-0.36701045,0.36701045,0.63568075,1141.1395,435.39135)">
        <path
           style="fill:#ff0000;fill-rule:evenodd;stroke:none"
           d="m 84.226215,14.494237 c -35.61032,3.00465 -66.51167,13.07613 -87.1104405,22.92686 -4.03379,1.92904 1.69119,16.5037 5.54881,15.00811 34.7988505,-13.49148 74.0153405,-19.14576 113.6559755,-23.45487 4.62547,-0.50662 1.17937,-14.73995 -2.47407,-16.40818 -3.10934,-1.4198 -25.832755,1.58769 -29.620275,1.92808 z"
           id="path2762"
           sodipodi:nodetypes="cssssc"
           inkscape:export-filename="/home/hsl/Desktop/Minus.png"
           inkscape:export-xdpi="200.39999"
           inkscape:export-ydpi="200.39999" />
      </g>
      <g
         transform="matrix(0.36701045,0.63568075,-0.63568075,0.36701045,1189.0639,386.48701)"
         id="g2943"
         inkscape:label="Ebene 1">
        <path
           inkscape:export-ydpi="200.39999"
           inkscape:export-xdpi="200.39999"
           inkscape:export-filename="/home/hsl/Desktop/Minus.png"
           sodipodi:nodetypes="cssssc"
           id="path2945"
           d="m 84.226215,14.494237 c -35.61032,3.00465 -66.51167,13.07613 -87.1104405,22.92686 -4.03379,1.92904 1.69119,16.5037 5.54881,15.00811 34.7988505,-13.49148 74.0153405,-19.14576 113.6559755,-23.45487 4.62547,-0.50662 1.17937,-14.73995 -2.47407,-16.40818 -3.10934,-1.4198 -25.832755,1.58769 -29.620275,1.92808 z"
           style="fill:#ff0000;fill-rule:evenodd;stroke:none" />
      </g>
    </g>
    <g
       id="g3850"
       transform="translate(12.98774,0)">
      <path
         transform="matrix(0.34558938,0,0,0.34558938,192.25257,420.70917)"
         d="m 282.8427,612.44073 c 0,52.16289 -30.52759,94.44927 -68.18529,94.44927 -37.6577,0 -68.1853,-42.28638 -68.1853,-94.44927 0,-52.16288 30.5276,-94.44926 68.1853,-94.44926 37.6577,0 68.18529,42.28638 68.18529,94.44926 z"
         sodipodi:ry="94.449265"
         sodipodi:rx="68.185295"
         sodipodi:cy="612.44073"
         sodipodi:cx="214.65741"
         id="path2853"
         style="color:#000000;fill:#cccccc;stroke:#000000;stroke-width:8.68082237;stroke-linecap:butt;stroke-linejoin:miter;stroke-miterlimit:4;stroke-opacity:1;stroke-dasharray:none;stroke-dashoffset:0;marker:none;visibility:visible;display:inline;overflow:visible;enable-background:accumulate"
         sodipodi:type="arc" />
      <path
         id="path2858"
         d="m 379.28507,599.72328 c -13.0141,0 -23.56488,16.33846 -23.56488,36.49858 0,11.69696 3.55883,22.10049 9.08252,28.78098 l 28.96471,0 c 5.5237,-6.68049 9.08252,-17.08402 9.08252,-28.78098 0,-20.16012 -10.55077,-36.49858 -23.56487,-36.49858 z"
         style="color:#000000;fill:#cccccc;stroke:#000000;stroke-width:3;stroke-linecap:butt;stroke-linejoin:miter;stroke-miterlimit:4;stroke-opacity:1;stroke-dasharray:none;stroke-dashoffset:0;marker:none;visibility:visible;display:inline;overflow:visible;enable-background:accumulate" />
      <path
         id="path2860"
         d="m 406.15618,665.74507 11.20768,11.20768"
         style="fill:none;stroke:#000000;stroke-width:2;stroke-linecap:butt;stroke-linejoin:miter;stroke-opacity:1" />
      <path
         style="fill:none;stroke:#000000;stroke-width:2;stroke-linecap:butt;stroke-linejoin:miter;stroke-opacity:1"
         d="m 394.94851,665.74509 11.20767,11.20766"
         id="path2862" />
      <path
         style="fill:none;stroke:#000000;stroke-width:2;stroke-linecap:butt;stroke-linejoin:miter;stroke-opacity:1"
         d="m 383.74085,665.74507 11.20766,11.20768"
         id="path2864" />
      <path
         id="path2866"
         d="m 372.53317,665.74507 11.20768,11.20768"
         style="fill:none;stroke:#000000;stroke-width:2;stroke-linecap:butt;stroke-linejoin:miter;stroke-opacity:1" />
      <path
         style="fill:none;stroke:#000000;stroke-width:2;stroke-linecap:butt;stroke-linejoin:miter;stroke-opacity:1"
         d="m 361.32549,665.74507 11.20768,11.20768"
         id="path2868" />
      <path
         id="path2870"
         d="m 350.11781,665.74507 11.20768,11.20768"
         style="fill:none;stroke:#000000;stroke-width:2;stroke-linecap:butt;stroke-linejoin:miter;stroke-opacity:1" />
      <path
         id="path2872"
         d="m 338.91015,665.74507 11.20766,11.20768"
         style="fill:none;stroke:#000000;stroke-width:2;stroke-linecap:butt;stroke-linejoin:miter;stroke-opacity:1" />
      <path
         style="fill:none;stroke:#000000;stroke-width:2;stroke-linecap:butt;stroke-linejoin:miter;stroke-opacity:1"
         d="m 327.70247,665.74507 11.20768,11.20768"
         id="path2874" />
      <path
         style="fill:none;stroke:#000000;stroke-width:2;stroke-linecap:butt;stroke-linejoin:miter;stroke-opacity:1"
         d="m 316.4948,665.74507 11.20767,11.20768"
         id="path2876" />
      <path
         id="path2878"
         d="m 305.28712,665.74507 11.20768,11.20768"
         style="fill:none;stroke:#000000;stroke-width:2;stroke-linecap:butt;stroke-linejoin:miter;stroke-opacity:1" />
      <path
         id="path2880"
         d="m 294.07946,665.74507 11.20766,11.20768"
         style="fill:none;stroke:#000000;stroke-width:2;stroke-linecap:butt;stroke-linejoin:miter;stroke-opacity:1" />
      <path
         style="fill:none;stroke:#000000;stroke-width:2;stroke-linecap:butt;stroke-linejoin:miter;stroke-opacity:1"
         d="m 282.87178,665.74507 11.20768,11.20768"
         id="path2882" />
      <path
         id="path2884"
         d="m 271.6641,665.74507 11.20768,11.20768"
         style="fill:none;stroke:#000000;stroke-width:2;stroke-linecap:butt;stroke-linejoin:miter;stroke-opacity:1" />
      <path
         style="fill:none;stroke:#000000;stroke-width:2;stroke-linecap:butt;stroke-linejoin:miter;stroke-opacity:1"
         d="m 260.45642,665.74507 11.20768,11.20768"
         id="path2886" />
      <path
         style="fill:none;stroke:#000000;stroke-width:2;stroke-linecap:butt;stroke-linejoin:miter;stroke-opacity:1"
         d="m 249.24876,665.74507 11.20766,11.20768"
         id="path2888" />
      <path
         id="path2890"
         d="m 238.04109,665.74507 11.20767,11.20768"
         style="fill:none;stroke:#000000;stroke-width:2;stroke-linecap:butt;stroke-linejoin:miter;stroke-opacity:1" />
      <path
         id="path2892"
         d="m 417.36386,665.74507 -184.92662,0"
         style="fill:none;stroke:#000000;stroke-width:2;stroke-linecap:butt;stroke-linejoin:miter;stroke-opacity:1" />
      <g
         inkscape:label="Ebene 1"
         id="layer1-2"
         transform="matrix(0.25366983,0,0,0.25366983,383.71423,481.79459)">
        <path
           style="fill:#00d400;fill-rule:evenodd;stroke:none"
           d="m 256.75776,532.51341 c -30.93024,26.35538 -62.79522,54.24583 -79.00713,92.44934 -2.94618,6.39779 -5.39252,13.44235 -7.61787,19.92566 -14.72182,-19.22657 -39.03822,-26.76645 -60.53125,-35.71875 -10.081702,-4.25928 -6.53495,6.57167 -1.17012,9.47918 26.86543,13.35628 51.67547,39.12104 67.34288,63.91127 11.64172,-55.62174 49.59584,-101.60142 85.23314,-144.45366 3.01147,-3.55441 1.50895,-10.6934 -4.24965,-5.59304 z"
           id="path1872"
           sodipodi:nodetypes="cccccccc"
           inkscape:export-filename="/home/hsl/Desktop/Checkmark.png"
           inkscape:export-xdpi="200.03999"
           inkscape:export-ydpi="200.03999" />
      </g>
      <g
         transform="matrix(0.34558938,0,0,0.34558938,-101.83549,487.47595)"
         id="g2963">
        <g
           inkscape:label="Ebene 1"
           id="g2965"
           transform="matrix(0.63568075,-0.36701045,0.36701045,0.63568075,1141.1395,435.39135)">
          <path
             style="fill:#ff0000;fill-rule:evenodd;stroke:none"
             d="m 84.226215,14.494237 c -35.61032,3.00465 -66.51167,13.07613 -87.1104405,22.92686 -4.03379,1.92904 1.69119,16.5037 5.54881,15.00811 34.7988505,-13.49148 74.0153405,-19.14576 113.6559755,-23.45487 4.62547,-0.50662 1.17937,-14.73995 -2.47407,-16.40818 -3.10934,-1.4198 -25.832755,1.58769 -29.620275,1.92808 z"
             id="path2967"
             sodipodi:nodetypes="cssssc"
             inkscape:export-filename="/home/hsl/Desktop/Minus.png"
             inkscape:export-xdpi="200.39999"
             inkscape:export-ydpi="200.39999" />
        </g>
        <g
           transform="matrix(0.36701045,0.63568075,-0.63568075,0.36701045,1189.0639,386.48701)"
           id="g2969"
           inkscape:label="Ebene 1">
          <path
             inkscape:export-ydpi="200.39999"
             inkscape:export-xdpi="200.39999"
             inkscape:export-filename="/home/hsl/Desktop/Minus.png"
             sodipodi:nodetypes="cssssc"
             id="path2971"
             d="m 84.226215,14.494237 c -35.61032,3.00465 -66.51167,13.07613 -87.1104405,22.92686 -4.03379,1.92904 1.69119,16.5037 5.54881,15.00811 34.7988505,-13.49148 74.0153405,-19.14576 113.6559755,-23.45487 4.62547,-0.50662 1.17937,-14.73995 -2.47407,-16.40818 -3.10934,-1.4198 -25.832755,1.58769 -29.620275,1.92808 z"
             style="fill:#ff0000;fill-rule:evenodd;stroke:none" />
        </g>
      </g>
    </g>
    <g
       id="g3902"
       transform="translate(7.4731003,0)">
      <path
         id="rect2816"
         d="m 395.14433,403.78617 0,18.57601 0,19.69893 14.85567,0 0,-19.69893 32.77515,0 0,19.69893 14.84989,0 0,-19.69893 0,-18.57601 -14.84989,0 -32.77515,0 -14.85567,0 z"
         style="color:#000000;fill:#cccccc;stroke:#000000;stroke-width:3;stroke-linecap:butt;stroke-linejoin:miter;stroke-miterlimit:4;stroke-opacity:1;stroke-dasharray:none;stroke-dashoffset:0;marker:none;visibility:visible;display:inline;overflow:visible;enable-background:accumulate" />
      <path
         id="path3006"
         d="m 340,402.36218 c -22.09139,0 -40,17.90861 -40,40 l 20,0 c 0,-10.70052 8.40135,-19.46434 18.96875,-20 0.34088,-0.0173 0.68607,0 1.03125,0 11.04569,0 20,8.95431 20,20 l 20,0 c 0,-22.09139 -17.90861,-40 -40,-40 z"
         style="color:#000000;fill:#cccccc;stroke:#000000;stroke-width:3;stroke-linecap:butt;stroke-linejoin:miter;stroke-miterlimit:4;stroke-opacity:1;stroke-dasharray:none;stroke-dashoffset:0;marker:none;visibility:visible;display:inline;overflow:visible;enable-background:accumulate" />
      <path
         style="color:#000000;fill:#cccccc;stroke:#000000;stroke-width:3;stroke-linecap:butt;stroke-linejoin:miter;stroke-miterlimit:4;stroke-opacity:1;stroke-dasharray:none;stroke-dashoffset:0;marker:none;visibility:visible;display:inline;overflow:visible;enable-background:accumulate"
         d="m 287.63082,440.93819 0,-18.57601 0,-19.69893 -14.85567,0 0,19.69893 -32.77515,0 0,-19.69893 -14.84989,0 0,19.69893 0,18.57601 14.84989,0 32.77515,0 14.85567,0 z"
         id="path3032" />
    </g>
    <g
       inkscape:label="Ebene 1"
       id="g3034"
       transform="matrix(0.25366983,0,0,0.25366983,446.84245,268.77345)">
      <path
         style="fill:#00d400;fill-rule:evenodd;stroke:none"
         d="m 256.75776,532.51341 c -30.93024,26.35538 -62.79522,54.24583 -79.00713,92.44934 -2.94618,6.39779 -5.39252,13.44235 -7.61787,19.92566 -14.72182,-19.22657 -39.03822,-26.76645 -60.53125,-35.71875 -10.081702,-4.25928 -6.53495,6.57167 -1.17012,9.47918 26.86543,13.35628 51.67547,39.12104 67.34288,63.91127 11.64172,-55.62174 49.59584,-101.60142 85.23314,-144.45366 3.01147,-3.55441 1.50895,-10.6934 -4.24965,-5.59304 z"
         id="path3036"
         sodipodi:nodetypes="cccccccc"
         inkscape:export-filename="/home/hsl/Desktop/Checkmark.png"
         inkscape:export-xdpi="200.03999"
         inkscape:export-ydpi="200.03999" />
    </g>
    <g
       id="g3897"
       transform="translate(-0.71149,0)">
      <path
         style="color:#000000;fill:#cccccc;stroke:#000000;stroke-width:2.99999976;stroke-linecap:butt;stroke-linejoin:miter;stroke-miterlimit:4;stroke-opacity:1;stroke-dasharray:none;stroke-dashoffset:0;marker:none;visibility:visible;display:inline;overflow:visible;enable-background:accumulate"
         d="m 235.14433,473.78617 0,18.57601 0,19.69893 53.4626,0 0,-19.69893 117.95126,0 0,19.69893 53.44181,0 0,-19.69893 0,-18.57601 -53.44181,0 -117.95126,0 -53.4626,0 z"
         id="path3016" />
      <text
         id="text3038"
         y="487.62598"
         x="351.04575"
         style="font-size:14px;font-style:normal;font-weight:normal;text-align:center;text-anchor:middle;fill:#000000;fill-opacity:1;stroke:none;font-family:TeXGyreBonum;-inkscape-font-specification:TeXGyreBonum"
         xml:space="preserve"><tspan
           y="487.62598"
           x="351.04575"
           id="tspan3040"
           sodipodi:role="line">&gt;2cm</tspan></text>
    </g>
    <g
       id="g3878"
       transform="translate(-1.34989,0)">
      <path
         sodipodi:nodetypes="ccccc"
         id="rect2816-8"
         d="m 472.95525,532.82913 -124.41218,0 0,41.47073 50.43737,0 73.97481,-41.47073 z"
         style="color:#000000;fill:#cccccc;stroke:#000000;stroke-width:3;stroke-linecap:butt;stroke-linejoin:miter;stroke-miterlimit:4;stroke-opacity:1;stroke-dashoffset:0;marker:none;visibility:visible;display:inline;overflow:visible;enable-background:accumulate" />
      <path
         style="color:#000000;fill:#cccccc;stroke:#000000;stroke-width:3;stroke-linecap:butt;stroke-linejoin:miter;stroke-miterlimit:4;stroke-opacity:1;stroke-dashoffset:0;marker:none;visibility:visible;display:inline;overflow:visible;enable-background:accumulate"
         d="m 235.46588,533.08532 84.53412,0 -22.32803,41.47072 -62.20609,0 0,-41.47072 z"
         id="path2898"
         sodipodi:nodetypes="ccccc" />
      <g
         transform="matrix(0.34558938,0,0,0.34558938,-36.806259,401.75379)"
         id="g2953">
        <g
           inkscape:label="Ebene 1"
           id="g2955"
           transform="matrix(0.63568075,-0.36701045,0.36701045,0.63568075,1141.1395,435.39135)">
          <path
             style="fill:#ff0000;fill-rule:evenodd;stroke:none"
             d="m 84.226215,14.494237 c -35.61032,3.00465 -66.51167,13.07613 -87.1104405,22.92686 -4.03379,1.92904 1.69119,16.5037 5.54881,15.00811 34.7988505,-13.49148 74.0153405,-19.14576 113.6559755,-23.45487 4.62547,-0.50662 1.17937,-14.73995 -2.47407,-16.40818 -3.10934,-1.4198 -25.832755,1.58769 -29.620275,1.92808 z"
             id="path2957"
             sodipodi:nodetypes="cssssc"
             inkscape:export-filename="/home/hsl/Desktop/Minus.png"
             inkscape:export-xdpi="200.39999"
             inkscape:export-ydpi="200.39999" />
        </g>
        <g
           transform="matrix(0.36701045,0.63568075,-0.63568075,0.36701045,1189.0639,386.48701)"
           id="g2959"
           inkscape:label="Ebene 1">
          <path
             inkscape:export-ydpi="200.39999"
             inkscape:export-xdpi="200.39999"
             inkscape:export-filename="/home/hsl/Desktop/Minus.png"
             sodipodi:nodetypes="cssssc"
             id="path2961"
             d="m 84.226215,14.494237 c -35.61032,3.00465 -66.51167,13.07613 -87.1104405,22.92686 -4.03379,1.92904 1.69119,16.5037 5.54881,15.00811 34.7988505,-13.49148 74.0153405,-19.14576 113.6559755,-23.45487 4.62547,-0.50662 1.17937,-14.73995 -2.47407,-16.40818 -3.10934,-1.4198 -25.832755,1.58769 -29.620275,1.92808 z"
             style="fill:#ff0000;fill-rule:evenodd;stroke:none" />
        </g>
      </g>
      <g
         transform="matrix(0.25366983,0,0,0.25366983,215.41137,399.21728)"
         id="g2973"
         inkscape:label="Ebene 1">
        <path
           inkscape:export-ydpi="200.03999"
           inkscape:export-xdpi="200.03999"
           inkscape:export-filename="/home/hsl/Desktop/Checkmark.png"
           sodipodi:nodetypes="cccccccc"
           id="path2975"
           d="m 256.75776,532.51341 c -30.93024,26.35538 -62.79522,54.24583 -79.00713,92.44934 -2.94618,6.39779 -5.39252,13.44235 -7.61787,19.92566 -14.72182,-19.22657 -39.03822,-26.76645 -60.53125,-35.71875 -10.081702,-4.25928 -6.53495,6.57167 -1.17012,9.47918 26.86543,13.35628 51.67547,39.12104 67.34288,63.91127 11.64172,-55.62174 49.59584,-101.60142 85.23314,-144.45366 3.01147,-3.55441 1.50895,-10.6934 -4.24965,-5.59304 z"
           style="fill:#00d400;fill-rule:evenodd;stroke:none" />
      </g>
      <text
         id="text2977"
         y="572.36218"
         x="325.00415"
         style="font-size:13.4068594px;font-style:normal;font-weight:normal;text-align:center;text-anchor:middle;fill:#000000;fill-opacity:1;stroke:none;font-family:TeXGyreBonum;-inkscape-font-specification:TeXGyreBonum"
         xml:space="preserve"><tspan
           y="572.36218"
           x="325.00415"
           id="tspan2979"
           sodipodi:role="line">&lt;45°</tspan></text>
      <text
         id="text2977-2"
         y="572.36218"
         x="435.00415"
         style="font-size:13.4068594px;font-style:normal;font-weight:normal;text-align:center;text-anchor:middle;fill:#000000;fill-opacity:1;stroke:none;font-family:TeXGyreBonum;-inkscape-font-specification:TeXGyreBonum"
         xml:space="preserve"><tspan
           y="572.36218"
           x="435.00415"
           id="tspan2979-1"
           sodipodi:role="line">&gt;45°</tspan></text>
      <path
         sodipodi:nodetypes="cc"
         id="path3067"
         d="m 399,574.3622 0,-32.00002"
         style="fill:none;stroke:#000000;stroke-width:1.5;stroke-linecap:butt;stroke-linejoin:miter;stroke-miterlimit:4;stroke-opacity:1;stroke-dasharray:2.99999999, 1;stroke-dashoffset:0" />
      <path
         sodipodi:nodetypes="cc"
         id="path3071"
         d="m 399,561.36218 c 4.3629,0 9.07095,2.49826 11.4398,6.16205"
         style="color:#000000;fill:#cccccc;fill-opacity:1;fill-rule:nonzero;stroke:#000000;stroke-width:1.5;stroke-linecap:butt;stroke-linejoin:miter;stroke-miterlimit:4;stroke-opacity:1;stroke-dashoffset:0;marker:none;visibility:visible;display:inline;overflow:visible;enable-background:accumulate" />
      <path
         style="fill:none;stroke:#000000;stroke-width:1.5;stroke-linecap:butt;stroke-linejoin:miter;stroke-miterlimit:4;stroke-opacity:1;stroke-dasharray:2.99999999, 1;stroke-dashoffset:0"
         d="m 296,574.36218 0,-32.00002"
         id="path3846"
         sodipodi:nodetypes="cc" />
      <path
         style="color:#000000;fill:none;stroke:#000000;stroke-width:1.5;stroke-linecap:butt;stroke-linejoin:miter;stroke-miterlimit:4;stroke-opacity:1;stroke-dashoffset:0;marker:none;visibility:visible;display:inline;overflow:visible;enable-background:accumulate"
         d="m 296,561.36216 c 4.3629,0 5,2e-5 8,3.00002"
         id="path3848"
         sodipodi:nodetypes="cc" />
    </g>
  </g>
</svg>
